<svg xmlns="http://www.w3.org/2000/svg" xmlns:xlink="http://www.w3.org/1999/xlink" width="1123" zoomAndPan="magnify" viewBox="0 0 841.92 595.499987" height="794" preserveAspectRatio="xMidYMid meet" version="1.0"><defs><clipPath id="67a4d6af1c"><path d="M 502 12.015625 L 520 12.015625 L 520 55 L 502 55 Z M 502 12.015625 " clip-rule="nonzero"/></clipPath></defs><path fill="#c02900" d="M 324.585938 187.425781 C 326.496094 166.78125 329.488281 146.765625 334.652344 127.136719 C 336.375 120.605469 338.992188 114.339844 343.53125 109.105469 C 349.363281 102.398438 356.472656 99.570312 365.386719 101.457031 C 373.988281 103.277344 382.105469 106.339844 390.035156 109.988281 C 401.273438 115.160156 412.453125 120.464844 423.800781 125.414062 C 436.375 130.90625 449.304688 133.917969 463.230469 131.152344 C 467.96875 130.210938 473.351562 129.050781 477.484375 133.613281 C 481.601562 138.15625 483.160156 143.351562 481.167969 149.195312 C 478.808594 156.105469 476.425781 163.046875 473.484375 169.710938 C 464.589844 189.808594 455.523438 209.894531 439.132812 225.332031 C 425.839844 237.847656 411.011719 247.503906 392.652344 251.292969 C 364.707031 257.042969 326.839844 231.902344 325.441406 199.628906 C 325.265625 195.417969 324.855469 191.203125 324.585938 187.425781 Z M 386.222656 230.527344 C 378.855469 231.949219 375.347656 233.835938 371.347656 238.28125 C 379.617188 240.992188 379.617188 240.992188 386.222656 230.527344 Z M 347.636719 222.222656 C 350.59375 228.078125 356.144531 230.28125 361.070312 233.179688 C 362.03125 233.742188 363.3125 233.800781 363.851562 232.441406 C 364.402344 231.066406 364.53125 229.390625 362.679688 229.179688 C 359.875 228.851562 358.546875 227.3125 356.894531 225.132812 C 355.003906 222.65625 351.898438 220.6875 347.636719 222.222656 Z M 377.847656 224.910156 C 386.914062 221.929688 386.914062 221.929688 389.964844 215.125 C 385.917969 217.824219 382.09375 219.96875 377.847656 224.910156 Z M 445.878906 143.246094 C 444.882812 142.003906 443.414062 142.097656 442.101562 141.910156 C 440.925781 141.746094 439.144531 140.722656 438.910156 142.894531 C 438.699219 144.839844 439.929688 145.992188 441.972656 145.722656 C 443.589844 145.511719 445.011719 144.769531 445.878906 143.246094 Z M 429.371094 174.453125 C 427.90625 176.199219 424.09375 175.71875 424.363281 179.414062 C 426.777344 178.441406 428.609375 177.042969 429.371094 174.453125 Z M 414.449219 186.582031 C 418.542969 185.527344 420.011719 184.09375 421.605469 181.621094 C 418.203125 181.855469 416.960938 183.683594 414.449219 186.582031 Z M 340.871094 160.210938 C 339.695312 160.492188 338.863281 161.757812 339.15625 162.71875 C 339.378906 163.484375 339.742188 163.695312 340.410156 163.296875 C 341.386719 162.707031 342.40625 162.074219 342.242188 160.75 C 342.148438 160.09375 341.515625 159.929688 340.871094 160.210938 Z M 340.871094 160.210938 " fill-opacity="1" fill-rule="nonzero"/><path fill="#c02900" d="M 532.257812 204.917969 C 533.183594 195.097656 533.007812 185.832031 535.097656 176.691406 C 538.40625 162.191406 549.914062 154.378906 564.449219 157.265625 C 568.34375 158.039062 572.097656 159.1875 575.640625 160.902344 C 593.414062 169.488281 612.605469 172.210938 631.894531 174.394531 C 640.574219 175.378906 648.976562 177.527344 657.503906 179.167969 C 671.5 181.867188 677.527344 192.484375 679.804688 206.421875 C 680.660156 211.652344 680.332031 217.0625 679.054688 222.339844 C 675.441406 237.203125 669.796875 251.1875 661.199219 263.894531 C 660.261719 265.289062 659.015625 266.53125 658.300781 268.035156 C 649.820312 285.738281 633.746094 292.519531 616.160156 295.238281 C 597.214844 298.160156 578.621094 295.636719 562.007812 284.5625 C 555.0625 279.929688 549.585938 274.132812 545.480469 266.90625 C 534.382812 247.421875 531.121094 226.339844 532.257812 204.917969 Z M 604.59375 247.75 C 617.453125 243.597656 617.453125 243.597656 618.402344 237.132812 C 612.96875 239.398438 609.25 243.175781 604.59375 247.75 Z M 567.113281 221.835938 C 571.054688 218.304688 574.410156 214.222656 577.800781 208.050781 C 570.914062 211.40625 567.792969 215.570312 567.113281 221.835938 Z M 614.589844 220.605469 C 609.898438 220.238281 608.910156 222.796875 607.1875 227.300781 C 610.707031 224.839844 613.394531 224.3125 614.589844 220.605469 Z M 578.960938 237.4375 C 581.238281 236.171875 582.210938 234.835938 582.28125 232.371094 C 580.238281 233.578125 578.890625 234.503906 578.960938 237.4375 Z M 578.960938 237.4375 " fill-opacity="1" fill-rule="nonzero"/><path fill="#c02900" d="M 560.625 94.289062 C 566.300781 98.535156 572.390625 99.980469 578.269531 101.585938 C 587.511719 104.097656 596.96875 105.398438 606.625 105.457031 C 620.160156 105.550781 633.617188 104.226562 647.085938 103.253906 C 651.214844 102.949219 655.367188 102.632812 659.355469 100.648438 C 662.992188 98.84375 666.816406 100.414062 667.113281 102.984375 C 667.511719 106.46875 665.246094 108.144531 662.242188 108.777344 C 657.023438 109.882812 651.777344 111.054688 646.488281 111.675781 C 631.941406 113.414062 617.324219 114.152344 602.671875 113.871094 C 588.394531 113.589844 574.84375 110.1875 561.855469 104.367188 C 560.0625 103.558594 558.265625 102.691406 556.660156 101.574219 C 551.097656 97.703125 550.78125 93.070312 555.71875 88.273438 C 559.027344 85.058594 563.148438 83.226562 567.511719 81.960938 C 573.480469 80.234375 579.640625 78.96875 585.800781 78.992188 C 607.175781 79.074219 628.585938 77.585938 649.925781 79.871094 C 650.207031 79.90625 650.488281 79.917969 650.769531 79.953125 C 670.40625 82.195312 677.351562 88.355469 681.082031 107.933594 C 686.1875 134.742188 689.964844 161.734375 692.40625 188.941406 C 694.105469 207.875 693.425781 226.5625 690.375 245.25 C 688.476562 256.9375 683.863281 267.25 676.121094 276.257812 C 664.425781 289.867188 650.863281 301.246094 634.863281 309.28125 C 625.5 313.988281 621.078125 320.4375 620.820312 331.042969 C 620.078125 361.992188 619.65625 392.941406 619.644531 423.898438 C 619.644531 446.414062 618.625 468.925781 618.660156 491.425781 C 618.695312 514.46875 619.996094 513.796875 638.3125 523.125 C 644.785156 526.421875 651.894531 528.496094 658.710938 531.125 C 665.621094 533.777344 671.898438 537.390625 677.152344 542.703125 C 681.425781 547.011719 684.308594 552.089844 685.835938 557.921875 C 687.664062 564.902344 685.777344 568.679688 678.890625 570.929688 C 670.300781 573.757812 661.246094 574.378906 652.386719 576.011719 C 632.070312 579.742188 611.597656 580.644531 591.007812 579.261719 C 579.933594 578.519531 569.210938 581.640625 558.265625 582.132812 C 553.210938 582.355469 548.152344 582.652344 543.097656 582.699219 C 539.109375 582.734375 535.308594 581.652344 531.695312 579.953125 C 521.828125 575.332031 519.691406 566.0625 526.964844 558.015625 C 534.96875 549.167969 544.011719 541.660156 555.472656 537.53125 C 562.382812 535.042969 568.707031 531.324219 574.949219 527.488281 C 582.386719 522.902344 586.515625 516.238281 587.605469 507.582031 C 589.671875 491.074219 589.695312 474.425781 590.058594 457.863281 C 590.691406 429.4375 592.6875 401.09375 593.976562 372.714844 C 594.609375 358.671875 595.84375 344.617188 594.351562 330.539062 C 594.140625 328.582031 594.128906 326.597656 593.882812 324.652344 C 592.289062 311.886719 592.300781 311.769531 579.863281 309.574219 C 559.191406 305.9375 541.183594 298.089844 529.007812 279.789062 C 521.03125 267.800781 516.667969 254.800781 514.636719 240.59375 C 510.671875 212.765625 514.519531 185.574219 520.539062 158.578125 C 525.066406 138.273438 530.4375 118.152344 535.472656 97.960938 C 535.882812 96.332031 536.375 94.6875 537.089844 93.1875 C 537.382812 92.578125 538.417969 91.898438 539.039062 91.96875 C 539.683594 92.039062 540.550781 92.871094 540.761719 93.550781 C 541.441406 95.757812 540.890625 97.996094 540.550781 100.226562 C 537.722656 118.878906 532.867188 137.109375 528.902344 155.515625 C 523.988281 178.394531 520.140625 201.410156 521.113281 224.933594 C 521.78125 241.085938 524.667969 256.621094 532.480469 271.191406 C 540.480469 286.113281 552.460938 295.320312 568.625 299.15625 C 575.441406 300.777344 582.210938 302.851562 589.296875 303.207031 C 594.902344 303.476562 597.753906 306.679688 599.058594 311.992188 C 602.671875 326.667969 602.742188 341.566406 601.71875 356.476562 C 598.703125 400.542969 595.304688 444.582031 595.292969 488.785156 C 595.292969 495.53125 594.773438 502.289062 594.070312 509 C 592.921875 519.96875 587.910156 528.710938 578.363281 534.65625 C 571.898438 538.667969 565.433594 542.65625 558.265625 545.320312 C 548.515625 548.933594 540.691406 555.28125 533.652344 562.695312 C 529.253906 567.328125 529.875 570.25 535.707031 572.785156 C 538.816406 574.132812 542.113281 574.941406 545.5625 574.730469 C 549.773438 574.472656 554.042969 574.542969 558.183594 573.875 C 574.082031 571.304688 590.011719 570.53125 606.097656 571.492188 C 623.621094 572.539062 640.902344 569.675781 658.183594 567.292969 C 664.039062 566.484375 669.996094 566.847656 675.769531 565.21875 C 681.355469 563.632812 682.222656 562.238281 679.6875 556.910156 C 675.746094 548.652344 668.976562 543.234375 660.824219 539.550781 C 655.707031 537.238281 650.441406 535.195312 645.113281 533.402344 C 637.863281 530.949219 631.34375 527.125 624.621094 523.582031 C 615.28125 518.65625 611.457031 510.820312 611.210938 500.894531 C 610.988281 491.894531 610.847656 482.863281 611.421875 473.886719 C 612.851562 451.679688 612.886719 429.4375 612.828125 407.21875 C 612.757812 381.59375 614.460938 356.03125 614.496094 330.433594 C 614.519531 317.4375 620.019531 308.789062 631.519531 302.851562 C 646.160156 295.296875 658.558594 284.691406 669.46875 272.328125 C 676.144531 264.761719 680.402344 256.171875 682.421875 246.226562 C 686.65625 225.320312 686.9375 204.296875 684.625 183.214844 C 682.082031 160.011719 678.9375 136.886719 675.054688 113.859375 C 671.558594 93.164062 667.710938 88.285156 647.039062 87.296875 C 623.480469 86.171875 599.785156 85.503906 576.214844 88.25 C 570.9375 88.824219 565.667969 89.867188 560.625 94.289062 Z M 560.625 94.289062 " fill-opacity="1" fill-rule="nonzero"/><path fill="#c02900" d="M 379.101562 270.261719 C 373.753906 270.261719 368.402344 270.34375 363.054688 270.238281 C 356.308594 270.121094 351.0625 272.832031 347.214844 278.289062 C 342.359375 285.1875 337.316406 291.976562 332.761719 299.074219 C 308.679688 336.78125 284.910156 374.675781 264.742188 414.679688 C 254.664062 434.65625 254.675781 436.992188 267.582031 455.28125 C 272.765625 462.636719 278.410156 469.664062 283.925781 476.785156 C 287.761719 481.722656 290.929688 487.015625 292.617188 493.058594 C 294.695312 500.484375 292.40625 504.355469 284.945312 506.007812 C 278.292969 507.476562 271.476562 508.109375 264.8125 506.699219 C 237.621094 500.964844 211.855469 491.824219 189.039062 475.308594 C 175.863281 465.769531 165.164062 453.945312 155.136719 441.402344 C 150.675781 435.832031 147.699219 429.449219 148.167969 421.976562 C 148.695312 413.480469 152.742188 409.796875 161.292969 410.445312 C 167.476562 410.914062 173.507812 412.34375 179.464844 414.082031 C 192.558594 417.90625 206.039062 418.550781 219.566406 418.902344 C 226.253906 419.078125 230.617188 415.488281 234.417969 410.667969 C 246.617188 395.191406 258.984375 379.8125 269.273438 362.976562 C 283.796875 339.210938 297.871094 315.171875 312.078125 291.214844 C 315.515625 285.410156 318.660156 279.4375 321.148438 273.125 C 324.714844 264.070312 325.113281 255.023438 321.160156 246.039062 C 318.894531 240.898438 316.714844 235.632812 313.746094 230.902344 C 302.332031 212.765625 300.664062 192.800781 302.789062 172.328125 C 306.683594 134.871094 321.734375 102.078125 345.410156 72.984375 C 358.558594 56.832031 371.160156 40.207031 387.40625 26.902344 C 389.847656 24.898438 393.050781 20.160156 395.480469 22.679688 C 398.871094 26.199219 393.589844 28.945312 391.257812 31.140625 C 374.761719 46.578125 359.664062 63.285156 346.417969 81.539062 C 326.261719 109.304688 312.410156 139.84375 309.136719 174.382812 C 307.410156 192.589844 309.21875 210.316406 319.402344 226.386719 C 322.542969 231.351562 324.925781 236.828125 327.285156 242.238281 C 332.128906 253.382812 332.046875 264.691406 327.332031 275.847656 C 325.253906 280.75 323.039062 285.679688 320.257812 290.207031 C 297.144531 327.828125 275.992188 366.695312 249.644531 402.277344 C 245.960938 407.253906 242.136719 412.121094 238.429688 417.070312 C 233.136719 424.144531 226.097656 427.535156 217.277344 427.136719 C 203.515625 426.515625 189.742188 426.117188 176.371094 422.070312 C 171.546875 420.613281 166.503906 419.851562 161.527344 419.019531 C 157.761719 418.386719 156.378906 420.484375 156.859375 423.992188 C 157.457031 428.3125 159.523438 431.996094 162.1875 435.3125 C 178.058594 455.128906 196.59375 471.566406 220.28125 481.699219 C 234.007812 487.566406 247.746094 493.257812 262.386719 496.496094 C 268.765625 497.902344 275.136719 498.699219 281.636719 498.078125 C 286.585938 497.609375 286.808594 497.164062 285.25 492.246094 C 283.773438 487.601562 281.039062 483.683594 278.082031 479.90625 C 271.476562 471.496094 265.011719 462.988281 258.785156 454.285156 C 250.488281 442.695312 249.164062 431.136719 255.417969 417.90625 C 270.257812 386.535156 288.007812 356.855469 306.402344 327.546875 C 317.019531 310.632812 328.65625 294.371094 339.496094 277.582031 C 346.207031 267.191406 355.109375 261.96875 367.664062 262.542969 C 376.367188 262.941406 385.109375 262.507812 393.835938 262.390625 C 413.6875 262.109375 429.828125 254.367188 441.773438 238.375 C 451.0625 225.941406 458.816406 212.519531 465.644531 198.628906 C 476.554688 176.410156 487.03125 153.980469 497.601562 131.597656 C 501.332031 123.710938 504.546875 115.605469 507 107.21875 C 509.652344 98.136719 508.746094 90.230469 501.039062 83.566406 C 481.003906 66.214844 460.589844 49.476562 436.082031 38.589844 C 429.863281 35.832031 423.378906 34.070312 416.75 32.722656 C 415.140625 32.394531 413.195312 31.785156 411.9375 33.203125 C 410.367188 34.988281 411.398438 36.980469 412.488281 38.601562 C 418.765625 48.019531 425.652344 56.878906 435.4375 62.980469 C 442.371094 67.296875 449.574219 71.109375 457.011719 74.511719 C 466.21875 78.722656 475.394531 82.992188 484.582031 87.261719 C 489.425781 89.515625 494.140625 92.050781 499.703125 92.15625 C 501.71875 92.191406 503.960938 92.730469 503.84375 95.277344 C 503.726562 97.632812 501.554688 98.171875 499.539062 98.429688 C 495.597656 98.9375 491.597656 99.183594 487.890625 97.515625 C 468.671875 88.871094 448.671875 81.914062 430.664062 70.664062 C 419.859375 63.917969 412.171875 54.355469 405.886719 43.539062 C 405.039062 42.097656 404.324219 40.511719 403.867188 38.90625 C 401.367188 30.152344 407.023438 23.773438 416.105469 25.226562 C 423.613281 26.433594 430.957031 28.394531 437.972656 31.421875 C 462.3125 41.886719 483.347656 57.277344 502.800781 75.015625 C 503.011719 75.203125 503.1875 75.425781 503.398438 75.613281 C 514.730469 85.222656 516.644531 97 512.03125 110.679688 C 508.066406 122.445312 503.433594 133.90625 497.847656 144.957031 C 484.664062 171.050781 474.46875 198.617188 459.289062 223.734375 C 455.355469 230.246094 451.226562 236.605469 446.863281 242.835938 C 433.863281 261.394531 415.644531 269.628906 393.472656 270.167969 C 388.6875 270.285156 383.902344 270.179688 379.113281 270.179688 C 379.101562 270.214844 379.101562 270.238281 379.101562 270.261719 Z M 379.101562 270.261719 " fill-opacity="1" fill-rule="nonzero"/><path fill="#c02900" d="M 550.195312 67.390625 C 547.660156 67.285156 546.816406 65.980469 546.945312 64.058594 C 547.121094 61.359375 548.871094 59.425781 550.605469 57.605469 C 558.007812 49.804688 566.761719 43.75 576.109375 38.542969 C 577.304688 37.875 578.703125 37.4375 580.050781 37.167969 C 581.789062 36.828125 583.417969 37.285156 584.488281 38.847656 C 585.589844 40.464844 585.179688 42.085938 584.074219 43.503906 C 583.21875 44.605469 582.222656 45.605469 581.203125 46.542969 C 572.871094 54.15625 563.101562 59.765625 553.726562 65.898438 C 552.566406 66.640625 551.15625 66.992188 550.195312 67.390625 Z M 550.195312 67.390625 " fill-opacity="1" fill-rule="nonzero"/><g clip-path="url(#67a4d6af1c)"><path fill="#c02900" d="M 519.503906 46.660156 C 519.457031 50.554688 519.855469 53.453125 516.621094 54.238281 C 513.523438 54.988281 512.042969 52.621094 510.988281 50.273438 C 506.484375 40.242188 503.914062 29.660156 502.355469 18.820312 C 502.039062 16.582031 502.214844 14.035156 504.769531 13.121094 C 507.855469 12.015625 509.582031 14.316406 510.542969 16.664062 C 514.683594 26.785156 517.675781 37.25 519.503906 46.660156 Z M 519.503906 46.660156 " fill-opacity="1" fill-rule="nonzero"/></g><path fill="#c02900" d="M 533.101562 48.726562 C 533.535156 47.363281 534.40625 44.722656 535.226562 42.074219 C 537.640625 34.273438 542.042969 27.445312 545.949219 20.371094 C 547.027344 18.410156 548.742188 16.488281 551.296875 17.191406 C 554.183594 17.976562 553.84375 20.675781 553.386719 22.785156 C 551.085938 33.472656 547.625 43.75 541.492188 52.9375 C 540.1875 54.882812 538.335938 56.386719 535.859375 55.550781 C 533.371094 54.742188 532.84375 52.515625 533.101562 48.726562 Z M 533.101562 48.726562 " fill-opacity="1" fill-rule="nonzero"/></svg>