<svg xmlns="http://www.w3.org/2000/svg" xmlns:xlink="http://www.w3.org/1999/xlink" width="1123" zoomAndPan="magnify" viewBox="0 0 841.92 595.499987" height="794" preserveAspectRatio="xMidYMid meet" version="1.0"><defs><clipPath id="fb782540e7"><path d="M 274 170 L 531 170 L 531 427 L 274 427 Z M 274 170 " clip-rule="nonzero"/></clipPath><clipPath id="514b26ec45"><path d="M 217.132812 59.476562 L 674.75 114.089844 L 624.484375 535.246094 L 166.871094 480.632812 Z M 217.132812 59.476562 " clip-rule="nonzero"/></clipPath><clipPath id="13099a9888"><path d="M 217.132812 59.476562 L 674.75 114.089844 L 624.484375 535.246094 L 166.871094 480.632812 Z M 217.132812 59.476562 " clip-rule="nonzero"/></clipPath><clipPath id="d8a7cf7526"><path d="M 358 169 L 418 169 L 418 420 L 358 420 Z M 358 169 " clip-rule="nonzero"/></clipPath><clipPath id="112a923dbb"><path d="M 217.132812 59.476562 L 674.75 114.089844 L 624.484375 535.246094 L 166.871094 480.632812 Z M 217.132812 59.476562 " clip-rule="nonzero"/></clipPath><clipPath id="74c329ff7e"><path d="M 217.132812 59.476562 L 674.75 114.089844 L 624.484375 535.246094 L 166.871094 480.632812 Z M 217.132812 59.476562 " clip-rule="nonzero"/></clipPath><clipPath id="ee85bab367"><path d="M 309 179 L 359 179 L 359 392 L 309 392 Z M 309 179 " clip-rule="nonzero"/></clipPath><clipPath id="4a660c8142"><path d="M 217.132812 59.476562 L 674.75 114.089844 L 624.484375 535.246094 L 166.871094 480.632812 Z M 217.132812 59.476562 " clip-rule="nonzero"/></clipPath><clipPath id="ebb8428a82"><path d="M 217.132812 59.476562 L 674.75 114.089844 L 624.484375 535.246094 L 166.871094 480.632812 Z M 217.132812 59.476562 " clip-rule="nonzero"/></clipPath><clipPath id="f1b418ad51"><path d="M 398 174 L 451 174 L 451 426 L 398 426 Z M 398 174 " clip-rule="nonzero"/></clipPath><clipPath id="4ad9306c92"><path d="M 217.132812 59.476562 L 674.75 114.089844 L 624.484375 535.246094 L 166.871094 480.632812 Z M 217.132812 59.476562 " clip-rule="nonzero"/></clipPath><clipPath id="f633bb95c9"><path d="M 217.132812 59.476562 L 674.75 114.089844 L 624.484375 535.246094 L 166.871094 480.632812 Z M 217.132812 59.476562 " clip-rule="nonzero"/></clipPath><clipPath id="89a1abeb4c"><path d="M 457 197 L 495 197 L 495 410 L 457 410 Z M 457 197 " clip-rule="nonzero"/></clipPath><clipPath id="93ac49068d"><path d="M 217.132812 59.476562 L 674.75 114.089844 L 624.484375 535.246094 L 166.871094 480.632812 Z M 217.132812 59.476562 " clip-rule="nonzero"/></clipPath><clipPath id="a55f681d24"><path d="M 217.132812 59.476562 L 674.75 114.089844 L 624.484375 535.246094 L 166.871094 480.632812 Z M 217.132812 59.476562 " clip-rule="nonzero"/></clipPath><clipPath id="e81f0d3830"><path d="M 335 189 L 487 189 L 487 213 L 335 213 Z M 335 189 " clip-rule="nonzero"/></clipPath><clipPath id="4255dd035c"><path d="M 217.132812 59.476562 L 674.75 114.089844 L 624.484375 535.246094 L 166.871094 480.632812 Z M 217.132812 59.476562 " clip-rule="nonzero"/></clipPath><clipPath id="3038c45a01"><path d="M 217.132812 59.476562 L 674.75 114.089844 L 624.484375 535.246094 L 166.871094 480.632812 Z M 217.132812 59.476562 " clip-rule="nonzero"/></clipPath><clipPath id="bd83044b81"><path d="M 295 231 L 520 231 L 520 262 L 295 262 Z M 295 231 " clip-rule="nonzero"/></clipPath><clipPath id="601d004925"><path d="M 217.132812 59.476562 L 674.75 114.089844 L 624.484375 535.246094 L 166.871094 480.632812 Z M 217.132812 59.476562 " clip-rule="nonzero"/></clipPath><clipPath id="382f4a33b8"><path d="M 217.132812 59.476562 L 674.75 114.089844 L 624.484375 535.246094 L 166.871094 480.632812 Z M 217.132812 59.476562 " clip-rule="nonzero"/></clipPath><clipPath id="024ec7a031"><path d="M 278 281 L 526 281 L 526 321 L 278 321 Z M 278 281 " clip-rule="nonzero"/></clipPath><clipPath id="369514eb74"><path d="M 217.132812 59.476562 L 674.75 114.089844 L 624.484375 535.246094 L 166.871094 480.632812 Z M 217.132812 59.476562 " clip-rule="nonzero"/></clipPath><clipPath id="961910d9f6"><path d="M 217.132812 59.476562 L 674.75 114.089844 L 624.484375 535.246094 L 166.871094 480.632812 Z M 217.132812 59.476562 " clip-rule="nonzero"/></clipPath><clipPath id="fc27494dd7"><path d="M 284 330 L 510 330 L 510 368 L 284 368 Z M 284 330 " clip-rule="nonzero"/></clipPath><clipPath id="2db606c534"><path d="M 217.132812 59.476562 L 674.75 114.089844 L 624.484375 535.246094 L 166.871094 480.632812 Z M 217.132812 59.476562 " clip-rule="nonzero"/></clipPath><clipPath id="6458679708"><path d="M 217.132812 59.476562 L 674.75 114.089844 L 624.484375 535.246094 L 166.871094 480.632812 Z M 217.132812 59.476562 " clip-rule="nonzero"/></clipPath><clipPath id="d34a7dd442"><path d="M 308 374 L 480 374 L 480 402 L 308 402 Z M 308 374 " clip-rule="nonzero"/></clipPath><clipPath id="017ae77506"><path d="M 217.132812 59.476562 L 674.75 114.089844 L 624.484375 535.246094 L 166.871094 480.632812 Z M 217.132812 59.476562 " clip-rule="nonzero"/></clipPath><clipPath id="f518e13f0f"><path d="M 217.132812 59.476562 L 674.75 114.089844 L 624.484375 535.246094 L 166.871094 480.632812 Z M 217.132812 59.476562 " clip-rule="nonzero"/></clipPath><clipPath id="6904ec544d"><path d="M 411 84 L 432 84 L 432 177 L 411 177 Z M 411 84 " clip-rule="nonzero"/></clipPath><clipPath id="3823d099ac"><path d="M 217.132812 59.476562 L 674.75 114.089844 L 624.484375 535.246094 L 166.871094 480.632812 Z M 217.132812 59.476562 " clip-rule="nonzero"/></clipPath><clipPath id="332607299c"><path d="M 217.132812 59.476562 L 674.75 114.089844 L 624.484375 535.246094 L 166.871094 480.632812 Z M 217.132812 59.476562 " clip-rule="nonzero"/></clipPath><clipPath id="a4390f1734"><path d="M 183 278 L 265 278 L 265 365 L 183 365 Z M 183 278 " clip-rule="nonzero"/></clipPath><clipPath id="d74a452867"><path d="M 217.132812 59.476562 L 674.75 114.089844 L 624.484375 535.246094 L 166.871094 480.632812 Z M 217.132812 59.476562 " clip-rule="nonzero"/></clipPath><clipPath id="d0aeefb827"><path d="M 217.132812 59.476562 L 674.75 114.089844 L 624.484375 535.246094 L 166.871094 480.632812 Z M 217.132812 59.476562 " clip-rule="nonzero"/></clipPath><clipPath id="8a8bf19614"><path d="M 531 353 L 575 353 L 575 391 L 531 391 Z M 531 353 " clip-rule="nonzero"/></clipPath><clipPath id="45412e41b9"><path d="M 217.132812 59.476562 L 674.75 114.089844 L 624.484375 535.246094 L 166.871094 480.632812 Z M 217.132812 59.476562 " clip-rule="nonzero"/></clipPath><clipPath id="f721123c1b"><path d="M 217.132812 59.476562 L 674.75 114.089844 L 624.484375 535.246094 L 166.871094 480.632812 Z M 217.132812 59.476562 " clip-rule="nonzero"/></clipPath><clipPath id="bea0836bae"><path d="M 225 99 L 264 99 L 264 210 L 225 210 Z M 225 99 " clip-rule="nonzero"/></clipPath><clipPath id="cc7a92e0b8"><path d="M 217.132812 59.476562 L 674.75 114.089844 L 624.484375 535.246094 L 166.871094 480.632812 Z M 217.132812 59.476562 " clip-rule="nonzero"/></clipPath><clipPath id="36a58d5de6"><path d="M 217.132812 59.476562 L 674.75 114.089844 L 624.484375 535.246094 L 166.871094 480.632812 Z M 217.132812 59.476562 " clip-rule="nonzero"/></clipPath><clipPath id="fa649d62ee"><path d="M 523 114 L 636 114 L 636 209 L 523 209 Z M 523 114 " clip-rule="nonzero"/></clipPath><clipPath id="be5f5bac53"><path d="M 217.132812 59.476562 L 674.75 114.089844 L 624.484375 535.246094 L 166.871094 480.632812 Z M 217.132812 59.476562 " clip-rule="nonzero"/></clipPath><clipPath id="4b16378676"><path d="M 217.132812 59.476562 L 674.75 114.089844 L 624.484375 535.246094 L 166.871094 480.632812 Z M 217.132812 59.476562 " clip-rule="nonzero"/></clipPath><clipPath id="8ff84ffad6"><path d="M 238 411 L 588 411 L 588 478 L 238 478 Z M 238 411 " clip-rule="nonzero"/></clipPath><clipPath id="4fce3abf37"><path d="M 217.132812 59.476562 L 674.75 114.089844 L 624.484375 535.246094 L 166.871094 480.632812 Z M 217.132812 59.476562 " clip-rule="nonzero"/></clipPath><clipPath id="65dde0f936"><path d="M 217.132812 59.476562 L 674.75 114.089844 L 624.484375 535.246094 L 166.871094 480.632812 Z M 217.132812 59.476562 " clip-rule="nonzero"/></clipPath><clipPath id="47e1c2fb66"><path d="M 226 437 L 576 437 L 576 504 L 226 504 Z M 226 437 " clip-rule="nonzero"/></clipPath><clipPath id="9f5ece6b67"><path d="M 217.132812 59.476562 L 674.75 114.089844 L 624.484375 535.246094 L 166.871094 480.632812 Z M 217.132812 59.476562 " clip-rule="nonzero"/></clipPath><clipPath id="8eac893de1"><path d="M 217.132812 59.476562 L 674.75 114.089844 L 624.484375 535.246094 L 166.871094 480.632812 Z M 217.132812 59.476562 " clip-rule="nonzero"/></clipPath><clipPath id="f90e548c03"><path d="M 548 242 L 599 242 L 599 292 L 548 292 Z M 548 242 " clip-rule="nonzero"/></clipPath><clipPath id="6443c5dd0e"><path d="M 217.132812 59.476562 L 674.75 114.089844 L 624.484375 535.246094 L 166.871094 480.632812 Z M 217.132812 59.476562 " clip-rule="nonzero"/></clipPath><clipPath id="67dc073b78"><path d="M 217.132812 59.476562 L 674.75 114.089844 L 624.484375 535.246094 L 166.871094 480.632812 Z M 217.132812 59.476562 " clip-rule="nonzero"/></clipPath><clipPath id="3b55f07005"><path d="M 563 254 L 657 254 L 657 297 L 563 297 Z M 563 254 " clip-rule="nonzero"/></clipPath><clipPath id="6a81b54c65"><path d="M 217.132812 59.476562 L 674.75 114.089844 L 624.484375 535.246094 L 166.871094 480.632812 Z M 217.132812 59.476562 " clip-rule="nonzero"/></clipPath><clipPath id="8ca5a4c701"><path d="M 217.132812 59.476562 L 674.75 114.089844 L 624.484375 535.246094 L 166.871094 480.632812 Z M 217.132812 59.476562 " clip-rule="nonzero"/></clipPath><clipPath id="616de107ec"><path d="M 326 140 L 352 140 L 352 171 L 326 171 Z M 326 140 " clip-rule="nonzero"/></clipPath><clipPath id="b7c0565aa4"><path d="M 217.132812 59.476562 L 674.75 114.089844 L 624.484375 535.246094 L 166.871094 480.632812 Z M 217.132812 59.476562 " clip-rule="nonzero"/></clipPath><clipPath id="9ae9dd8cfe"><path d="M 217.132812 59.476562 L 674.75 114.089844 L 624.484375 535.246094 L 166.871094 480.632812 Z M 217.132812 59.476562 " clip-rule="nonzero"/></clipPath><clipPath id="0ffc1c81bb"><path d="M 361 135 L 372 135 L 372 161 L 361 161 Z M 361 135 " clip-rule="nonzero"/></clipPath><clipPath id="6e830d5523"><path d="M 217.132812 59.476562 L 674.75 114.089844 L 624.484375 535.246094 L 166.871094 480.632812 Z M 217.132812 59.476562 " clip-rule="nonzero"/></clipPath><clipPath id="61fb9dfa60"><path d="M 217.132812 59.476562 L 674.75 114.089844 L 624.484375 535.246094 L 166.871094 480.632812 Z M 217.132812 59.476562 " clip-rule="nonzero"/></clipPath></defs><g clip-path="url(#fb782540e7)"><g clip-path="url(#514b26ec45)"><g clip-path="url(#13099a9888)"><path fill="#c02900" d="M 387.40625 426.085938 C 384.417969 425.730469 381.441406 425.269531 378.5625 424.71875 C 355.601562 420.363281 334.277344 409.792969 316.902344 394.164062 C 312.636719 390.328125 308.582031 386.152344 304.855469 381.761719 C 293.507812 368.402344 285.144531 353.164062 280 336.472656 C 274.949219 320.097656 273.265625 303.085938 275 285.914062 C 275.070312 285.179688 275.15625 284.390625 275.257812 283.53125 C 277.386719 265.679688 283.066406 248.855469 292.136719 233.519531 C 302.449219 216.058594 317.003906 201.089844 334.222656 190.226562 C 339.308594 187.011719 344.664062 184.140625 350.164062 181.667969 L 350.394531 179.738281 L 353.726562 180.132812 C 373.574219 171.933594 395.359375 168.867188 416.820312 171.269531 C 417.144531 171.300781 417.476562 171.339844 417.804688 171.378906 C 421.351562 171.800781 424.898438 172.375 428.339844 173.078125 C 446.773438 176.828125 463.777344 184.402344 478.875 195.589844 C 482.496094 198.273438 486.027344 201.195312 489.367188 204.265625 C 504.625 218.292969 516.382812 236.003906 523.371094 255.476562 C 530.125 274.28125 532.339844 293.945312 529.957031 313.925781 C 529.851562 314.789062 529.75 315.574219 529.644531 316.328125 C 527.234375 333.796875 521.394531 350.269531 512.285156 365.261719 C 504.074219 378.785156 493.527344 390.570312 480.9375 400.285156 C 475.375 404.570312 469.445312 408.417969 463.308594 411.71875 C 445.816406 421.140625 426.101562 426.402344 406.296875 426.949219 C 400.027344 427.125 393.675781 426.832031 387.410156 426.082031 Z M 355.042969 189.453125 C 349.519531 191.863281 344.15625 194.707031 339.074219 197.917969 C 323.070312 208.015625 309.542969 221.925781 299.960938 238.148438 C 291.535156 252.394531 286.261719 268.027344 284.28125 284.609375 C 284.1875 285.398438 284.109375 286.117188 284.046875 286.804688 C 282.429688 302.785156 283.996094 318.589844 288.6875 333.792969 C 293.46875 349.304688 301.238281 363.464844 311.785156 375.878906 C 315.25 379.960938 319.015625 383.839844 322.984375 387.402344 C 339.121094 401.921875 358.929688 411.742188 380.261719 415.789062 C 382.941406 416.296875 385.707031 416.726562 388.484375 417.058594 C 394.308594 417.753906 400.214844 418.023438 406.042969 417.863281 C 424.441406 417.359375 442.75 412.46875 459 403.714844 C 464.707031 400.648438 470.21875 397.070312 475.386719 393.089844 C 487.089844 384.0625 496.890625 373.113281 504.515625 360.546875 C 512.976562 346.621094 518.402344 331.316406 520.640625 315.0625 C 520.742188 314.359375 520.835938 313.640625 520.929688 312.855469 C 523.148438 294.285156 521.089844 276.019531 514.820312 258.554688 C 508.324219 240.460938 497.394531 224 483.214844 210.960938 C 480.113281 208.105469 476.832031 205.394531 473.464844 202.902344 C 459.445312 192.511719 443.65625 185.476562 426.523438 181.992188 C 423.292969 181.328125 419.972656 180.792969 416.636719 180.398438 C 416.398438 180.371094 416.160156 180.339844 415.921875 180.320312 L 415.847656 180.3125 C 396.390625 178.132812 376.644531 180.78125 358.570312 187.988281 L 358.347656 189.851562 L 355.046875 189.457031 Z M 355.042969 189.453125 " fill-opacity="1" fill-rule="nonzero"/></g></g></g><g clip-path="url(#d8a7cf7526)"><g clip-path="url(#112a923dbb)"><g clip-path="url(#74c329ff7e)"><path fill="#c02900" d="M 373.664062 419.195312 C 368.355469 406.519531 364.351562 392.726562 361.757812 378.207031 C 360.910156 373.453125 360.203125 368.554688 359.660156 363.65625 C 358.746094 355.382812 358.242188 346.730469 358.164062 337.945312 C 358.03125 323.910156 358.917969 309.351562 360.886719 293.433594 C 361.691406 286.871094 362.699219 279.941406 363.890625 272.835938 C 365.722656 261.902344 367.578125 252.886719 369.722656 244.449219 C 373.527344 229.515625 378.226562 216.730469 384.085938 205.363281 C 385.175781 203.242188 386.320312 201.171875 387.46875 199.207031 C 394.277344 187.550781 402.472656 177.5625 411.828125 169.527344 L 417.75 176.421875 C 409.164062 183.796875 401.617188 193.003906 395.320312 203.792969 C 394.246094 205.625 393.1875 207.554688 392.167969 209.527344 C 386.625 220.273438 382.164062 232.433594 378.53125 246.6875 C 376.449219 254.875 374.640625 263.65625 372.851562 274.332031 C 371.683594 281.304688 370.691406 288.105469 369.902344 294.535156 C 367.988281 310.054688 367.121094 324.226562 367.25 337.851562 C 367.328125 346.339844 367.8125 354.683594 368.695312 362.652344 C 369.214844 367.351562 369.890625 372.042969 370.703125 376.597656 C 373.179688 390.464844 376.996094 403.609375 382.046875 415.671875 L 373.660156 419.183594 Z M 373.664062 419.195312 " fill-opacity="1" fill-rule="nonzero"/></g></g></g><g clip-path="url(#ee85bab367)"><g clip-path="url(#4a660c8142)"><g clip-path="url(#ebb8428a82)"><path fill="#c02900" d="M 315.527344 391.867188 C 314.53125 387.8125 313.640625 383.660156 312.882812 379.511719 C 311.953125 374.4375 311.1875 369.214844 310.613281 364 C 309.644531 355.261719 309.136719 346.058594 309.105469 336.648438 C 309.054688 322.089844 310.09375 306.902344 312.289062 290.222656 C 313.003906 284.746094 313.863281 279.011719 314.84375 273.175781 C 317 260.277344 319.257812 249.753906 321.933594 240.0625 C 325.496094 227.132812 329.785156 215.898438 335.042969 205.707031 C 337.179688 201.558594 339.539062 197.515625 342.0625 193.6875 C 344.527344 189.9375 347.203125 186.316406 350.023438 182.90625 L 350.398438 179.738281 L 354.914062 180.277344 L 354.375 184.789062 L 358.886719 185.328125 L 358.351562 189.84375 L 356.292969 189.597656 C 353.949219 192.484375 351.726562 195.535156 349.65625 198.6875 C 347.308594 202.246094 345.109375 206.011719 343.121094 209.871094 C 338.15625 219.5 334.09375 230.164062 330.699219 242.476562 C 328.105469 251.863281 325.917969 262.09375 323.8125 274.679688 C 322.851562 280.410156 322.007812 286.035156 321.300781 291.410156 C 319.160156 307.679688 318.144531 322.46875 318.199219 336.617188 C 318.230469 345.703125 318.722656 354.582031 319.65625 363.003906 C 320.207031 368.003906 320.9375 373.011719 321.832031 377.878906 C 322.554688 381.84375 323.410156 385.820312 324.363281 389.699219 L 315.535156 391.871094 Z M 315.527344 391.867188 " fill-opacity="1" fill-rule="nonzero"/></g></g></g><g clip-path="url(#f1b418ad51)"><g clip-path="url(#4ad9306c92)"><g clip-path="url(#f633bb95c9)"><path fill="#c02900" d="M 406.105469 425.082031 L 398.742188 419.746094 C 406.316406 409.296875 412.957031 397.570312 418.492188 384.875 C 420.285156 380.773438 421.972656 376.539062 423.507812 372.289062 C 426.1875 364.894531 428.574219 357.09375 430.601562 349.097656 C 434.003906 335.742188 436.546875 321.578125 438.363281 305.800781 C 439.109375 299.355469 439.746094 292.515625 440.25 285.464844 C 441.089844 273.804688 441.394531 264.175781 441.207031 255.152344 C 440.925781 241.324219 439.464844 229.152344 436.738281 217.933594 C 436.042969 215.078125 435.25 212.257812 434.382812 209.550781 C 430.886719 198.59375 426.039062 188.710938 419.972656 180.175781 L 427.382812 174.910156 C 433.988281 184.214844 439.257812 194.933594 443.042969 206.785156 C 443.972656 209.6875 444.824219 212.71875 445.566406 215.785156 C 448.453125 227.648438 450 240.464844 450.292969 254.964844 C 450.484375 264.269531 450.175781 274.167969 449.316406 286.117188 C 448.800781 293.296875 448.15625 300.273438 447.390625 306.84375 C 445.523438 323.03125 442.914062 337.585938 439.40625 351.339844 C 437.304688 359.617188 434.832031 367.710938 432.050781 375.382812 C 430.445312 379.816406 428.683594 384.234375 426.8125 388.515625 C 421.019531 401.800781 414.046875 414.105469 406.09375 425.082031 Z M 406.105469 425.082031 " fill-opacity="1" fill-rule="nonzero"/></g></g></g><g clip-path="url(#89a1abeb4c)"><g clip-path="url(#93ac49068d)"><g clip-path="url(#a55f681d24)"><path fill="#c02900" d="M 465.1875 409.816406 L 457.121094 405.621094 C 459.332031 401.367188 461.429688 396.953125 463.351562 392.492188 C 465 388.667969 466.574219 384.699219 468.019531 380.707031 C 470.839844 372.933594 473.339844 364.671875 475.460938 356.152344 C 478.933594 342.191406 481.488281 327.335938 483.261719 310.738281 C 483.84375 305.351562 484.347656 299.683594 484.761719 293.886719 C 485.796875 279.453125 486.023438 267.710938 485.480469 256.925781 C 484.917969 245.769531 483.535156 235.769531 481.246094 226.355469 C 479.839844 220.578125 478.03125 214.949219 475.875 209.621094 C 474.726562 206.78125 473.460938 203.984375 472.105469 201.289062 L 480.222656 197.195312 C 481.695312 200.109375 483.070312 203.144531 484.308594 206.210938 C 486.628906 211.941406 488.570312 217.996094 490.078125 224.203125 C 492.503906 234.179688 493.96875 244.730469 494.558594 256.464844 C 495.121094 267.628906 494.890625 279.726562 493.824219 294.539062 C 493.402344 300.4375 492.890625 306.21875 492.296875 311.710938 C 490.472656 328.722656 487.851562 343.980469 484.273438 358.34375 C 482.078125 367.167969 479.480469 375.734375 476.558594 383.800781 C 475.046875 387.964844 473.410156 392.101562 471.6875 396.089844 C 469.683594 400.746094 467.492188 405.363281 465.175781 409.8125 Z M 465.1875 409.816406 " fill-opacity="1" fill-rule="nonzero"/></g></g></g><g clip-path="url(#e81f0d3830)"><g clip-path="url(#4255dd035c)"><g clip-path="url(#3038c45a01)"><path fill="#c02900" d="M 395.65625 209.234375 C 394.566406 209.101562 393.472656 208.972656 392.386719 208.832031 C 376.472656 206.835938 360.488281 204.074219 344.878906 200.632812 C 341.789062 199.953125 338.664062 199.230469 335.589844 198.492188 L 337.714844 189.652344 C 340.734375 190.382812 343.804688 191.085938 346.835938 191.757812 C 362.175781 195.140625 377.886719 197.851562 393.523438 199.816406 C 409.734375 201.855469 426.246094 203.136719 442.597656 203.621094 C 454.984375 203.988281 467.535156 203.910156 479.902344 203.382812 C 481.914062 203.292969 483.980469 203.191406 486.039062 203.078125 L 486.535156 212.15625 C 484.441406 212.269531 482.339844 212.375 480.292969 212.464844 C 467.703125 213 454.929688 213.082031 442.328125 212.707031 C 426.785156 212.246094 411.097656 211.082031 395.65625 209.238281 Z M 395.65625 209.234375 " fill-opacity="1" fill-rule="nonzero"/></g></g></g><g clip-path="url(#bd83044b81)"><g clip-path="url(#601d004925)"><g clip-path="url(#382f4a33b8)"><path fill="#c02900" d="M 378.671875 253.328125 C 377.492188 253.1875 376.316406 253.046875 375.136719 252.898438 C 358.605469 250.878906 341.929688 248.472656 325.566406 245.753906 C 315.589844 244.101562 305.367188 242.265625 295.179688 240.296875 L 296.90625 231.371094 C 307.011719 233.324219 317.15625 235.148438 327.050781 236.785156 C 343.289062 239.488281 359.835938 241.871094 376.238281 243.875 C 400.589844 246.863281 425.324219 249.089844 449.761719 250.511719 C 463.152344 251.292969 476.734375 251.84375 490.125 252.15625 C 499.722656 252.378906 509.46875 252.488281 519.085938 252.46875 L 519.101562 261.558594 C 509.410156 261.578125 499.589844 261.472656 489.914062 261.242188 C 476.414062 260.929688 462.730469 260.371094 449.234375 259.582031 C 425.789062 258.222656 402.070312 256.117188 378.671875 253.324219 Z M 378.671875 253.328125 " fill-opacity="1" fill-rule="nonzero"/></g></g></g><g clip-path="url(#024ec7a031)"><g clip-path="url(#369514eb74)"><g clip-path="url(#961910d9f6)"><path fill="#c02900" d="M 280.058594 281.859375 L 525.679688 311.171875 L 524.601562 320.199219 L 278.980469 290.886719 Z M 280.058594 281.859375 " fill-opacity="1" fill-rule="nonzero"/></g></g></g><g clip-path="url(#fc27494dd7)"><g clip-path="url(#2db606c534)"><g clip-path="url(#6458679708)"><path fill="#c02900" d="M 507.464844 367.355469 C 498.160156 365.40625 488.59375 363.507812 479.03125 361.71875 C 465.515625 359.191406 451.730469 356.828125 438.054688 354.699219 C 413.492188 350.882812 388.511719 347.699219 363.8125 345.242188 C 347.09375 343.578125 330.121094 342.207031 313.367188 341.171875 C 303.742188 340.574219 293.914062 340.074219 284.15625 339.675781 L 284.527344 330.589844 C 294.34375 330.992188 304.238281 331.496094 313.925781 332.097656 C 330.792969 333.140625 347.882812 334.519531 364.714844 336.195312 C 389.578125 338.667969 414.722656 341.875 439.449219 345.71875 C 453.21875 347.859375 467.101562 350.238281 480.703125 352.785156 C 490.328125 354.585938 499.960938 356.492188 509.328125 358.457031 Z M 507.464844 367.355469 " fill-opacity="1" fill-rule="nonzero"/></g></g></g><g clip-path="url(#d34a7dd442)"><g clip-path="url(#017ae77506)"><g clip-path="url(#f518e13f0f)"><path fill="#c02900" d="M 308.417969 383.363281 L 308.21875 374.277344 C 311.175781 374.210938 314.238281 374.171875 317.328125 374.152344 C 334.1875 374.039062 351.269531 374.558594 368.097656 375.691406 C 387.734375 377.003906 407.582031 379.191406 427.09375 382.195312 C 440.914062 384.316406 454.839844 386.894531 468.488281 389.855469 C 472.113281 390.640625 475.71875 391.449219 479.199219 392.265625 L 477.125 401.117188 C 473.695312 400.3125 470.140625 399.515625 466.5625 398.742188 C 453.09375 395.820312 439.351562 393.273438 425.714844 391.179688 C 406.457031 388.21875 386.867188 386.0625 367.492188 384.765625 C 350.886719 383.640625 334.027344 383.132812 317.390625 383.246094 C 314.34375 383.261719 311.328125 383.304688 308.421875 383.367188 Z M 308.417969 383.363281 " fill-opacity="1" fill-rule="nonzero"/></g></g></g><g clip-path="url(#6904ec544d)"><g clip-path="url(#3823d099ac)"><g clip-path="url(#332607299c)"><path fill="#c02900" d="M 422.726562 84.011719 L 431.753906 85.089844 L 420.863281 176.332031 L 411.835938 175.253906 Z M 422.726562 84.011719 " fill-opacity="1" fill-rule="nonzero"/></g></g></g><g clip-path="url(#a4390f1734)"><g clip-path="url(#d74a452867)"><g clip-path="url(#d0aeefb827)"><path fill="#fead39" d="M 199.503906 364.460938 C 196.621094 364.117188 193.835938 363.144531 191.40625 361.558594 C 183.523438 356.414062 180.875 344.90625 185.738281 336.933594 C 188.128906 333.011719 192.246094 330.140625 197.03125 329.058594 C 201.75 327.984375 206.621094 328.785156 210.398438 331.242188 C 211.242188 331.789062 212.035156 332.402344 212.789062 333.09375 C 213.386719 316.765625 212.871094 300.328125 211.257812 284.101562 L 210.699219 278.492188 L 216.300781 279.136719 C 235.789062 281.390625 253.84375 292.488281 264.625 308.867188 L 257.027344 313.867188 C 248.75 301.285156 235.503906 292.300781 220.847656 289.09375 C 222.324219 306.863281 222.523438 324.84375 221.421875 342.625 C 221.34375 343.9375 220.828125 345.148438 220.019531 346.101562 L 220.066406 346.117188 C 219.773438 346.984375 219.492188 347.972656 219.195312 349.019531 C 217.78125 353.992188 216.023438 360.175781 210.410156 362.738281 C 206.933594 364.328125 203.136719 364.890625 199.507812 364.457031 Z M 202.242188 337.738281 C 201.214844 337.617188 200.132812 337.675781 199.042969 337.921875 C 196.640625 338.464844 194.621094 339.832031 193.503906 341.667969 C 191.171875 345.488281 192.566406 351.457031 196.375 353.945312 C 199.230469 355.808594 203.257812 356.019531 206.625 354.476562 C 208.421875 353.652344 209.546875 349.707031 210.445312 346.539062 C 210.519531 346.273438 210.597656 346.003906 210.671875 345.734375 C 210.488281 345.46875 210.320312 345.1875 210.171875 344.894531 C 208.714844 341.929688 207.207031 340.011719 205.433594 338.855469 C 204.507812 338.253906 203.410156 337.875 202.234375 337.734375 Z M 202.242188 337.738281 " fill-opacity="1" fill-rule="nonzero"/></g></g></g><g clip-path="url(#8a8bf19614)"><g clip-path="url(#45412e41b9)"><g clip-path="url(#f721123c1b)"><path fill="#fead39" d="M 539.378906 390.75 C 538.222656 390.609375 537.097656 390.222656 536.066406 389.59375 C 532.546875 387.457031 531.011719 382.96875 532.414062 378.914062 C 534.140625 373.941406 538.832031 371.652344 543.480469 371.570312 L 543.585938 361.738281 C 543.601562 360.449219 543.628906 357.765625 545.585938 355.816406 C 547.511719 353.894531 550.054688 353.851562 551.417969 353.824219 L 574.675781 353.386719 L 574.796875 384.230469 C 574.808594 386.042969 573.511719 387.574219 571.71875 387.871094 C 571.453125 387.914062 571.1875 387.925781 570.929688 387.914062 C 570.292969 387.984375 569.542969 388.109375 568.761719 388.234375 C 565.574219 388.753906 561.957031 389.34375 558.882812 387.800781 C 555.832031 386.265625 553.582031 383.183594 553.152344 379.949219 C 552.785156 377.214844 553.757812 374.589844 555.820312 372.742188 C 558.421875 370.410156 562.269531 369.824219 565.625 371.257812 C 566.292969 371.542969 566.90625 371.875 567.476562 372.238281 L 567.429688 360.796875 L 551.554688 361.089844 C 551.289062 361.09375 551.0625 361.105469 550.882812 361.117188 C 550.871094 361.300781 550.863281 361.535156 550.863281 361.808594 L 550.71875 375.488281 C 550.691406 378.261719 550.65625 381.714844 549.101562 384.898438 C 547.792969 387.589844 545.410156 389.664062 542.730469 390.449219 C 541.617188 390.773438 540.488281 390.871094 539.386719 390.738281 Z M 543.292969 378.875 C 541.601562 378.988281 539.84375 379.675781 539.285156 381.300781 C 539.039062 382.015625 539.148438 382.960938 539.839844 383.378906 C 540.066406 383.519531 540.296875 383.589844 540.671875 383.480469 C 541.378906 383.269531 542.152344 382.550781 542.554688 381.722656 C 542.960938 380.890625 543.175781 379.914062 543.292969 378.875 Z M 574.53125 383.109375 Z M 562.089844 377.769531 C 561.546875 377.703125 561.027344 377.839844 560.671875 378.160156 C 560.386719 378.417969 560.308594 378.621094 560.355469 378.992188 C 560.46875 379.84375 561.257812 380.859375 562.144531 381.308594 C 562.851562 381.664062 564.484375 381.519531 566.007812 381.304688 C 565.210938 379.769531 564.210938 378.570312 562.769531 377.953125 C 562.546875 377.855469 562.316406 377.796875 562.089844 377.769531 Z M 562.089844 377.769531 " fill-opacity="1" fill-rule="nonzero"/></g></g></g><g clip-path="url(#bea0836bae)"><g clip-path="url(#cc7a92e0b8)"><g clip-path="url(#36a58d5de6)"><path fill="#fead39" d="M 262.429688 209.039062 L 253.453125 207.59375 C 255.902344 192.40625 254.566406 176.757812 249.601562 162.210938 C 249.003906 163.25 248.367188 164.273438 247.695312 165.269531 C 245.972656 167.8125 243.511719 170.933594 239.710938 172.445312 C 235.375 174.175781 229.363281 173.105469 226.816406 168.316406 C 224.003906 163.015625 227.488281 157.441406 228.800781 155.339844 C 230.816406 152.125 236.160156 143.578125 244.800781 144.566406 C 245.410156 144.640625 246 144.75 246.578125 144.90625 C 249.515625 131.109375 246.132812 115.902344 236.796875 105.179688 L 243.648438 99.207031 C 255.785156 113.144531 259.546875 133.382812 254.378906 150.964844 C 255.582031 152.757812 256.640625 154.914062 257.554688 157.4375 C 263.53125 173.902344 265.210938 191.746094 262.425781 209.039062 Z M 234.835938 163.996094 C 235.089844 164.132812 235.773438 164.230469 236.34375 164.003906 C 237.839844 163.40625 239.171875 161.648438 240.164062 160.179688 C 241.574219 158.097656 242.78125 155.890625 243.785156 153.605469 L 243.765625 153.605469 C 241.816406 153.378906 239.375 155.589844 236.515625 160.164062 C 234.847656 162.828125 234.8125 163.769531 234.839844 164 Z M 234.835938 163.996094 " fill-opacity="1" fill-rule="nonzero"/></g></g></g><g clip-path="url(#fa649d62ee)"><g clip-path="url(#be5f5bac53)"><g clip-path="url(#4b16378676)"><path fill="#fead39" d="M 523.613281 208.847656 C 522.222656 186.808594 536.128906 164.953125 556.679688 156.875 C 557.648438 156.492188 558.691406 156.121094 559.796875 155.78125 C 562.660156 150.007812 567.511719 144.953125 574.953125 139.96875 C 579.550781 136.894531 585.753906 133.34375 592.996094 133.222656 C 593.445312 133.214844 593.902344 133.226562 594.355469 133.25 C 595.101562 132.554688 595.832031 131.925781 596.511719 131.363281 C 607.265625 122.417969 620.265625 116.65625 634.113281 114.691406 L 635.390625 123.691406 C 624.277344 125.265625 613.390625 129.84375 604.4375 136.667969 C 607.316406 138.664062 609.613281 141.511719 610.613281 145.195312 C 611.792969 149.546875 610.378906 154.589844 607.007812 158.058594 C 604 161.15625 599.902344 162.449219 596.0625 161.527344 C 588.734375 159.757812 585.433594 151.511719 586.949219 144.917969 C 587.058594 144.449219 587.183594 143.992188 587.328125 143.546875 C 585.125 144.394531 582.730469 145.707031 580.015625 147.523438 C 576.609375 149.804688 573.90625 152.035156 571.804688 154.316406 C 574.335938 154.542969 576.898438 155.164062 579.386719 156.347656 C 583.804688 158.445312 587.351562 162.53125 588.878906 167.269531 C 590.1875 171.335938 589.859375 175.472656 587.957031 178.917969 C 585.839844 182.75 581.910156 185.339844 577.171875 186.019531 C 571.886719 186.78125 566.382812 185.050781 562.800781 181.5 C 559.035156 177.769531 557.074219 172.300781 557.148438 166.589844 C 541.984375 174.039062 531.628906 191.398438 532.691406 208.269531 L 523.617188 208.839844 Z M 566.617188 163.542969 C 565.734375 167.539062 566.289062 172.167969 569.195312 175.050781 C 570.769531 176.605469 573.390625 177.386719 575.875 177.027344 C 576.988281 176.871094 579.003906 176.332031 580 174.53125 C 580.867188 172.957031 580.601562 171.226562 580.226562 170.058594 C 579.476562 167.730469 577.613281 165.574219 575.484375 164.5625 C 572.679688 163.234375 569.507812 163.136719 566.617188 163.546875 Z M 597.574219 143.210938 C 596.667969 144.484375 596.09375 145.710938 595.808594 146.953125 C 595.253906 149.371094 596.457031 152.265625 598.191406 152.6875 C 599.183594 152.925781 600.128906 152.089844 600.488281 151.71875 C 601.625 150.550781 602.179688 148.84375 601.835938 147.578125 C 601.296875 145.585938 599.601562 144.089844 597.574219 143.210938 Z M 597.574219 143.210938 " fill-opacity="1" fill-rule="nonzero"/></g></g></g><g clip-path="url(#8ff84ffad6)"><g clip-path="url(#4fce3abf37)"><g clip-path="url(#65dde0f936)"><path fill="#f2803b" d="M 359.0625 476.542969 C 357.734375 476.386719 356.414062 476.210938 355.085938 476.027344 C 311.324219 469.917969 269.941406 449.414062 238.570312 418.292969 L 244.972656 411.839844 C 274.960938 441.585938 314.511719 461.183594 356.34375 467.027344 C 398.179688 472.867188 441.585938 464.847656 478.570312 444.449219 C 481.40625 442.886719 484.300781 441.199219 487.097656 439.574219 C 498.757812 432.78125 510.820312 425.757812 524.667969 423.699219 C 544.117188 420.816406 565.296875 427.933594 587.617188 444.867188 L 582.121094 452.109375 C 561.828125 436.714844 542.945312 430.183594 526.003906 432.695312 C 513.886719 434.492188 503.097656 440.777344 491.675781 447.429688 C 488.832031 449.085938 485.894531 450.796875 482.964844 452.410156 C 445.441406 473.109375 401.59375 481.625 359.066406 476.546875 Z M 359.0625 476.542969 " fill-opacity="1" fill-rule="nonzero"/></g></g></g><g clip-path="url(#47e1c2fb66)"><g clip-path="url(#9f5ece6b67)"><g clip-path="url(#8eac893de1)"><path fill="#f2803b" d="M 346.527344 502.101562 C 345.195312 501.941406 343.878906 501.769531 342.550781 501.585938 C 298.785156 495.476562 257.40625 474.972656 226.035156 443.851562 L 232.4375 437.394531 C 262.425781 467.144531 301.976562 486.742188 343.808594 492.585938 C 385.644531 498.421875 429.050781 490.40625 466.035156 470.007812 C 468.871094 468.445312 471.761719 466.757812 474.5625 465.128906 C 486.222656 458.335938 498.285156 451.3125 512.128906 449.257812 C 531.582031 446.371094 552.761719 453.492188 575.078125 470.425781 L 569.585938 477.667969 C 549.292969 462.269531 530.410156 455.738281 513.46875 458.253906 C 501.347656 460.050781 490.5625 466.332031 479.140625 472.988281 C 476.296875 474.640625 473.355469 476.355469 470.429688 477.96875 C 432.90625 498.664062 389.058594 507.179688 346.527344 502.105469 Z M 346.527344 502.101562 " fill-opacity="1" fill-rule="nonzero"/></g></g></g><g clip-path="url(#f90e548c03)"><g clip-path="url(#6443c5dd0e)"><g clip-path="url(#67dc073b78)"><path fill="#f2803b" d="M 548.71875 291.050781 C 549.496094 278.371094 555.152344 266.007812 564.242188 257.132812 C 573.328125 248.253906 585.820312 242.890625 598.515625 242.414062 L 598.859375 251.496094 C 588.394531 251.890625 578.089844 256.316406 570.59375 263.636719 C 563.101562 270.957031 558.433594 281.152344 557.792969 291.609375 L 548.71875 291.054688 Z M 548.71875 291.050781 " fill-opacity="1" fill-rule="nonzero"/></g></g></g><g clip-path="url(#3b55f07005)"><g clip-path="url(#6a81b54c65)"><g clip-path="url(#8ca5a4c701)"><path fill="#f2803b" d="M 572.0625 296.582031 L 563.871094 292.636719 C 571.027344 277.777344 586.183594 265.964844 605.445312 260.226562 C 622.304688 255.203125 639.808594 254.992188 656.738281 254.785156 L 656.847656 263.878906 C 640.542969 264.074219 623.683594 264.277344 608.039062 268.941406 C 591.226562 273.949219 578.109375 284.023438 572.0625 296.585938 Z M 572.0625 296.582031 " fill-opacity="1" fill-rule="nonzero"/></g></g></g><g clip-path="url(#616de107ec)"><g clip-path="url(#b7c0565aa4)"><g clip-path="url(#9ae9dd8cfe)"><path fill="#f2803b" d="M 343.65625 170.09375 C 338.410156 161.703125 332.660156 153.503906 326.546875 145.722656 L 333.703125 140.105469 C 340.007812 148.144531 345.953125 156.609375 351.363281 165.277344 Z M 343.65625 170.09375 " fill-opacity="1" fill-rule="nonzero"/></g></g></g><g clip-path="url(#0ffc1c81bb)"><g clip-path="url(#6e830d5523)"><g clip-path="url(#61fb9dfa60)"><path fill="#f2803b" d="M 370.492188 160.277344 L 361.515625 158.832031 C 362.6875 151.550781 362.519531 144.199219 361.011719 136.980469 L 369.910156 135.117188 C 371.644531 143.429688 371.84375 151.890625 370.492188 160.273438 Z M 370.492188 160.277344 " fill-opacity="1" fill-rule="nonzero"/></g></g></g></svg>