<?xml version="1.0" encoding="UTF-8"?>
<svg xmlns="http://www.w3.org/2000/svg" xmlns:xlink="http://www.w3.org/1999/xlink" width="4500" height="2625" viewBox="0 0 4500 2625">
<path fill-rule="evenodd" fill="rgb(0%, 0%, 0%)" fill-opacity="1" d="M 2707.789062 1005.488281 C 2721.730469 975.570312 2738.910156 932.109375 2746.058594 919.078125 C 2776.960938 862.808594 2816.929688 814.210938 2864.75 779.351562 C 2915.019531 742.699219 2973.929688 721.121094 3040.289062 721.460938 C 3173.171875 722.148438 3263.78125 799.601562 3307.730469 904.449219 C 3349.480469 1004.050781 3348.589844 1128.660156 3301.148438 1234.109375 C 3194.480469 1471.25 2959.839844 1639.734375 2687.589844 1740.628906 C 2834.359375 1799.023438 2997.941406 1832.300781 3155.089844 1853.894531 C 3288.019531 1872.164062 3416.398438 1882.335938 3526.609375 1890.039062 C 3688.96875 1902.394531 3852.828125 1914.359375 4015.960938 1908.960938 C 4124.519531 1905.371094 4232.691406 1894.164062 4339.898438 1869.992188 C 4233.238281 1897.769531 4125.191406 1912.730469 4016.488281 1919.757812 C 3853.03125 1930.328125 3688.289062 1923.03125 3525.058594 1915.527344 C 3414.109375 1909.75 3284.730469 1902.800781 3150.871094 1885.804688 C 2978.238281 1863.882812 2798.28125 1825.664062 2640.191406 1757.390625 C 2618.570312 1764.679688 2596.75 1771.550781 2574.78125 1778.011719 C 2255.789062 1871.792969 1904.558594 1878.664062 1656.089844 1802.261719 C 1611.019531 1788.402344 1563.191406 1772.230469 1514.660156 1753.828125 C 1405.859375 1803.847656 1290 1836.96875 1171.460938 1854.390625 C 887.242188 1896.160156 587.675781 1847.851562 332.246094 1729.617188 C 281.5 1706.070312 229.574219 1682.914062 180.429688 1654.925781 C 147.8125 1636.347656 116.425781 1615.648438 87.429688 1591.289062 C 116.910156 1614.949219 148.6875 1634.90625 181.652344 1652.722656 C 231.320312 1679.5625 283.660156 1701.519531 334.828125 1723.890625 C 590.003906 1835.738281 887.195312 1876.863281 1167.808594 1830.90625 C 1274.640625 1813.410156 1379.039062 1783.273438 1477.910156 1739.527344 C 1429.980469 1720.355469 1381.878906 1699.070312 1335.558594 1675.761719 C 1263.609375 1639.5625 1195.941406 1598.46875 1139.691406 1552.910156 C 1066.429688 1493.550781 1007.148438 1428.46875 967.933594 1350.238281 C 931.195312 1276.949219 911.976562 1192.101562 915.734375 1089.371094 C 919.609375 983.359375 955.710938 871.589844 1023.179688 806.640625 C 1072.628906 759.03125 1138.609375 735.558594 1221.371094 756.011719 C 1269.289062 767.859375 1310.191406 793.210938 1344.460938 826.859375 C 1377.21875 859.039062 1403.910156 898.839844 1424.859375 941.390625 C 1430.601562 953.058594 1437.898438 970.761719 1445.199219 989.628906 C 1447.058594 994.460938 1448.929688 999.371094 1450.761719 1004.269531 C 1456.160156 984.421875 1464.101562 961.859375 1475.460938 937.589844 C 1491.570312 903.199219 1514.589844 865.289062 1547.089844 826.808594 C 1648.96875 706.171875 1776.640625 693.488281 1880.210938 747.269531 C 1977.769531 797.929688 2054.230469 908.921875 2065.960938 1046.300781 C 2071.941406 1116.550781 2054.660156 1191.410156 2025.371094 1261.308594 C 1995.921875 1331.609375 1954.410156 1396.871094 1913.101562 1447.179688 C 1817.660156 1563.25 1704.648438 1654.089844 1580.488281 1721.007812 C 1571.96875 1725.597656 1563.398438 1730.078125 1554.769531 1734.449219 C 1592.75 1748.246094 1630.011719 1760.625 1665.539062 1771.539062 C 1909 1846.347656 2253.140625 1839.011719 2565.648438 1746.980469 C 2576.011719 1743.929688 2586.339844 1740.785156 2596.628906 1737.542969 C 2404.738281 1645.210938 2251.121094 1503.359375 2190.28125 1283.789062 C 2169.441406 1208.480469 2153.96875 1124.769531 2159.570312 1044.949219 C 2163.46875 989.429688 2177.511719 935.789062 2206.539062 887.851562 C 2252.570312 811.808594 2333.890625 760.789062 2417.789062 749.578125 C 2502.558594 738.238281 2589.871094 767.039062 2646.929688 850.648438 C 2659.199219 868.640625 2668.480469 887.011719 2676.078125 905.699219 C 2689.238281 938.058594 2697.191406 971.429688 2707.789062 1005.488281 Z M 1518.191406 1720.808594 C 1657.671875 1652.742188 1784.871094 1556.410156 1889.660156 1427.980469 C 1929.199219 1379.640625 1968.898438 1316.960938 1997.019531 1249.460938 C 2024.210938 1184.230469 2040.640625 1114.46875 2034.949219 1048.96875 C 2024.089844 923.378906 1954.949219 821.460938 1865.710938 775.21875 C 1774.03125 727.710938 1661.421875 740.480469 1571.359375 847.289062 C 1540.929688 883.359375 1519.359375 918.859375 1504.28125 951.078125 C 1481.238281 1000.328125 1473.449219 1041.671875 1472.511719 1065.03125 C 1474.03125 1070.429688 1474.140625 1074.160156 1474.011719 1076.019531 C 1473.140625 1088.238281 1463.96875 1090.839844 1460.359375 1091.421875 C 1456.710938 1092.011719 1447.050781 1092.441406 1442.480469 1080.898438 C 1441.789062 1079.179688 1440.769531 1075.601562 1440.578125 1070 C 1434.640625 1052.808594 1425.011719 1025.929688 1415.421875 1001.148438 C 1408.511719 983.300781 1401.640625 966.539062 1396.199219 955.511719 C 1376.851562 916.21875 1352.320312 879.390625 1322.050781 849.679688 C 1291.851562 820.03125 1255.921875 797.5 1213.699219 787.070312 C 1143.441406 769.71875 1087.351562 789.28125 1045.378906 829.699219 C 983.253906 889.511719 951.304688 992.921875 947.746094 1090.539062 C 944.222656 1187.128906 962.042969 1266.96875 996.59375 1335.871094 C 1033.820312 1410.121094 1090.359375 1471.648438 1159.890625 1527.96875 C 1214.460938 1572.179688 1280.179688 1611.960938 1349.988281 1647.082031 C 1404.648438 1674.578125 1461.820312 1699.207031 1518.191406 1720.808594 Z M 2643.449219 1722.066406 C 2920.980469 1625.828125 3163.648438 1459.820312 3271.070312 1220.589844 C 3314.640625 1123.539062 3315.570312 1008.910156 3277.101562 917.300781 C 3238.070312 824.378906 3157.921875 755.449219 3040.128906 754.929688 C 2981.289062 754.671875 2929.109375 773.96875 2884.558594 806.488281 C 2840.578125 838.609375 2804.03125 883.511719 2775.640625 935.308594 C 2766.300781 952.359375 2739.929688 1020.851562 2725.730469 1044.609375 C 2710.609375 1069.898438 2691.351562 1060.921875 2686.710938 1048.589844 C 2669.941406 1004.011719 2661.71875 960.390625 2644.648438 918.511719 C 2637.910156 901.96875 2629.730469 885.71875 2618.859375 869.808594 C 2569.910156 798.160156 2494.988281 773.628906 2422.320312 783.378906 C 2348.230469 793.320312 2276.410156 838.378906 2235.78125 905.550781 C 2209.621094 948.800781 2197.230469 997.269531 2193.71875 1047.339844 C 2188.390625 1123.328125 2203.410156 1202.980469 2223.238281 1274.671875 C 2281.980469 1487.308594 2432.800781 1622.769531 2619.511719 1711.089844 C 2627.421875 1714.832031 2635.390625 1718.488281 2643.449219 1722.066406 "/>
</svg>
